<?xml version="1.0" standalone="no"?>
<!DOCTYPE svg PUBLIC "-//W3C//DTD SVG 20010904//EN"
 "http://www.w3.org/TR/2001/REC-SVG-20010904/DTD/svg10.dtd">
<svg version="1.0" xmlns="http://www.w3.org/2000/svg"
 width="495.000000pt" height="495.000000pt" viewBox="0 0 495.000000 495.000000"
 preserveAspectRatio="xMidYMid meet">
<metadata>
Created by potrace 1.14, written by Peter Selinger 2001-2017
</metadata>
<g transform="translate(0.000000,495.000000) scale(0.100000,-0.100000)"
fill="#000000" stroke="none">
<path d="M2448 3735 c-2 -1 -23 -5 -48 -8 -25 -4 -54 -8 -65 -11 -11 -2 -96
-20 -190 -40 -93 -19 -222 -47 -285 -61 -63 -15 -126 -29 -140 -31 -14 -3 -65
-14 -115 -24 -49 -11 -100 -21 -112 -23 -12 -2 -25 -6 -29 -9 -3 -4 -13 -4
-22 -1 -9 4 -13 2 -9 -4 6 -9 86 -31 179 -48 33 -7 57 -12 113 -25 59 -14 92
-20 123 -24 41 -5 47 -21 48 -132 1 -57 3 -106 5 -108 2 -2 54 -6 114 -9 61
-3 120 -8 131 -11 12 -2 38 -7 59 -10 57 -9 173 -75 226 -128 l48 -48 47 50
c26 27 52 50 60 50 7 0 14 4 16 8 5 13 120 65 152 69 16 2 41 6 55 9 14 4 71
8 126 10 55 1 105 3 111 3 8 1 12 31 12 94 0 138 -2 132 37 145 19 7 44 15 57
17 13 3 34 7 48 10 36 8 71 14 105 20 17 3 37 8 45 10 8 2 31 7 50 10 19 3 42
8 50 10 8 2 28 6 44 9 64 11 45 20 -114 51 -102 21 -123 25 -155 31 -16 3
-100 20 -185 39 -85 18 -171 37 -190 41 -19 4 -39 9 -45 10 -5 1 -25 5 -44 9
-19 3 -37 7 -40 9 -3 2 -22 7 -41 10 -36 6 -65 11 -110 21 -32 7 -118 14 -122
10z"/>
<path d="M2028 3105 c-1 -1 -28 -5 -58 -9 -91 -11 -108 -14 -118 -19 -8 -6
-113 -8 -159 -5 -13 1 -23 6 -23 11 0 4 -4 6 -9 2 -5 -3 -12 -1 -16 5 -4 6
-11 8 -16 4 -6 -3 -1 -14 11 -24 36 -31 25 -42 -34 -35 -62 6 -122 25 -161 51
-14 9 -29 14 -32 10 -11 -11 57 -73 109 -100 45 -23 159 -49 213 -49 32 0 184
11 260 19 134 14 245 4 309 -27 46 -22 55 -20 26 6 -22 20 -27 40 -7 29 6 -4
-3 9 -21 28 -40 43 -123 85 -183 94 -24 3 -54 7 -66 9 -12 2 -23 2 -25 0z"/>
<path d="M2878 3105 c-2 -2 -16 -6 -33 -8 -63 -12 -78 -17 -121 -42 -24 -14
-55 -37 -69 -51 -25 -25 -33 -40 -15 -29 19 12 10 -4 -17 -30 -31 -28 -28 -31
14 -14 15 6 37 15 48 20 71 28 174 29 395 3 118 -13 232 -5 310 23 53 19 136
77 151 105 15 28 6 32 -22 9 -33 -26 -106 -49 -180 -57 l-62 -7 22 24 c13 13
27 32 32 42 9 15 5 14 -31 -4 -36 -19 -52 -21 -128 -16 -48 4 -94 8 -102 10
-50 12 -186 27 -192 22z"/>
<path d="M1777 2914 c-3 -3 -123 -12 -172 -14 -22 0 -48 -7 -59 -15 -17 -13
-17 -15 -2 -31 10 -9 26 -14 41 -12 13 3 28 2 33 -1 5 -3 12 -51 15 -106 5
-106 8 -122 28 -170 7 -16 13 -32 14 -35 27 -79 122 -181 215 -230 52 -28 191
-54 215 -41 6 3 12 6 15 6 40 5 86 20 121 40 24 14 52 28 62 31 9 4 17 9 17
13 0 4 16 26 35 48 19 22 44 64 56 94 19 48 25 79 28 157 1 18 7 22 36 22 21
0 35 -5 36 -12 1 -7 1 -28 1 -45 0 -18 3 -33 7 -33 3 0 6 -13 7 -29 1 -30 37
-115 57 -136 7 -7 24 -28 40 -47 28 -37 127 -92 187 -104 136 -28 260 15 372
127 103 104 138 187 143 344 l3 100 30 1 c41 1 62 11 62 28 0 22 -27 32 -90
35 -30 2 -59 6 -65 9 -14 9 -418 8 -475 -2 -123 -20 -193 -57 -240 -129 -24
-37 -37 -48 -51 -44 -10 3 -19 1 -19 -3 0 -21 -56 9 -73 40 -38 68 -100 109
-202 131 -49 10 -419 22 -428 13z m438 -73 c159 -39 212 -192 124 -361 -28
-55 -70 -96 -130 -127 -62 -32 -64 -33 -127 -37 -149 -10 -301 100 -366 264
-20 51 -26 83 -29 156 -4 79 8 112 41 116 70 9 441 1 487 -11z m1009 6 c40 -6
45 -21 42 -107 -4 -89 -11 -117 -42 -188 -26 -58 -26 -57 -79 -119 -81 -94
-215 -137 -335 -108 -14 3 -29 7 -35 9 -42 10 -131 90 -159 144 -43 84 -53
173 -26 242 1 3 2 8 1 12 0 4 15 22 33 40 64 62 61 60 146 74 19 3 36 7 38 8
4 4 385 -3 416 -7z"/>
<path d="M2050 2755 c0 -7 5 -26 10 -40 20 -52 -33 -108 -94 -101 l-38 4 5
-41 c4 -33 14 -50 45 -77 22 -20 51 -36 65 -38 14 -1 30 -3 34 -4 25 -6 82 19
110 48 87 91 29 242 -100 258 -27 4 -37 1 -37 -9z m75 -131 c31 -31 9 -84 -35
-84 -45 0 -67 52 -38 88 15 17 53 15 73 -4z"/>
<path d="M2825 2751 c-44 -19 -94 -72 -96 -99 -5 -61 -3 -77 16 -109 30 -54
67 -77 128 -80 51 -2 70 5 113 43 21 19 31 42 40 88 4 25 -10 44 -20 27 -10
-15 -67 -3 -91 19 -23 22 -28 71 -10 99 7 13 -10 31 -30 31 -5 0 -28 -9 -50
-19z m72 -119 c21 -13 26 -58 8 -76 -19 -19 -56 -21 -73 -4 -40 40 16 111 65
80z"/>
<path d="M3357 2488 c-25 -83 -61 -134 -191 -264 -112 -111 -166 -170 -166
-178 0 -3 -13 -27 -28 -53 -23 -40 -50 -111 -70 -183 -11 -41 -9 -243 3 -301
8 -35 14 -66 14 -69 2 -8 22 -73 28 -90 3 -8 7 -20 8 -26 8 -36 39 -84 55 -84
10 0 20 4 22 8 2 5 25 23 53 42 82 56 118 89 193 175 23 27 42 55 42 62 0 7 4
13 9 13 13 0 95 165 119 240 18 58 27 99 38 180 7 46 6 184 -1 249 -8 73 -46
215 -75 278 -11 24 -20 47 -20 53 0 29 -17 3 -33 -52z"/>
<path d="M1552 2499 c-34 -78 -41 -97 -58 -161 -9 -35 -18 -72 -21 -83 -10
-36 -12 -284 -3 -317 5 -18 12 -52 15 -76 7 -49 44 -150 81 -224 55 -108 149
-225 249 -308 34 -29 136 -93 140 -88 11 13 36 75 55 133 20 66 27 95 35 155
2 14 4 25 5 25 1 0 10 93 10 120 1 37 -14 131 -30 192 -30 109 -91 208 -180
291 -186 175 -253 263 -267 352 -6 37 -10 36 -31 -11z"/>
<path d="M2441 2458 c-29 -31 -48 -70 -46 -93 2 -25 40 -88 61 -102 22 -14 26
-13 52 8 30 26 31 28 39 59 3 11 9 20 14 20 4 0 0 20 -11 44 -19 45 -57 96
-71 96 -5 0 -22 -15 -38 -32z"/>
<path d="M2300 1977 c-6 -17 -4 -26 12 -39 11 -10 29 -18 39 -18 23 0 44 41
35 67 -7 17 -9 16 -27 -6 -13 -16 -19 -19 -19 -8 0 26 -30 29 -40 4z"/>
<path d="M2566 1984 c-4 -9 1 -27 9 -40 24 -37 66 -30 79 12 9 29 -18 53 -32
28 -9 -17 -11 -17 -27 -1 -20 21 -21 21 -29 1z"/>
<path d="M2164 1826 c-14 -36 27 -83 61 -70 14 6 31 42 31 63 -1 19 -36 23
-36 4 0 -13 -3 -13 -25 1 -22 14 -26 15 -31 2z"/>
<path d="M2436 1833 c-13 -14 -5 -53 15 -67 41 -28 95 23 66 62 -7 9 -13 9
-23 1 -9 -7 -19 -7 -32 0 -11 6 -22 7 -26 4z"/>
<path d="M2703 1829 c-14 -14 7 -63 29 -71 15 -6 57 8 59 19 7 43 5 53 -12 53
-10 0 -21 -5 -25 -11 -5 -8 -10 -6 -16 5 -11 19 -20 20 -35 5z"/>
<path d="M2299 1664 c-11 -13 -11 -20 1 -42 26 -45 89 -33 97 20 3 22 -23 36
-40 19 -8 -8 -15 -7 -27 4 -15 14 -19 14 -31 -1z"/>
<path d="M2572 1671 c-18 -11 -9 -52 16 -69 19 -12 27 -13 47 -2 13 7 22 17
19 21 -2 4 0 10 6 14 16 10 12 23 -11 30 -13 4 -25 2 -29 -5 -5 -8 -11 -8 -22
3 -8 9 -20 12 -26 8z"/>
<path d="M2699 1505 c-1 -8 -2 -21 -3 -27 -1 -7 9 -23 21 -35 20 -19 27 -21
48 -11 45 20 44 80 -1 72 -13 -2 -33 0 -44 6 -16 8 -20 7 -21 -5z"/>
<path d="M2226 1501 c-4 -6 -20 -8 -35 -5 -26 5 -28 3 -28 -20 0 -35 43 -61
69 -42 20 14 28 67 11 73 -6 2 -14 -1 -17 -6z"/>
<path d="M2429 1497 c-3 -27 3 -43 22 -59 19 -16 23 -16 50 -2 24 12 30 21 27
42 -3 25 -7 27 -50 29 -30 0 -48 -3 -49 -10z"/>
<path d="M2143 1273 c-5 -16 -8 -61 -8 -101 1 -61 5 -75 24 -93 14 -14 30 -19
44 -15 16 4 26 -1 35 -14 15 -25 67 -27 80 -4 5 9 24 17 41 19 18 1 37 7 42
12 13 13 18 150 7 190 -8 29 -13 33 -41 33 -21 0 -39 -8 -51 -21 -12 -15 -21
-18 -28 -11 -7 7 -17 8 -29 1 -14 -7 -21 -5 -29 11 -7 14 -21 20 -44 20 -28 0
-36 -5 -43 -27z"/>
<path d="M2550 1274 c-15 -38 -12 -167 3 -188 8 -10 25 -20 40 -21 15 -2 34
-10 43 -19 8 -9 28 -16 43 -16 30 0 56 21 43 35 -4 4 7 4 23 1 23 -5 36 -2 53
14 12 11 22 26 23 33 3 51 -4 154 -12 169 -13 24 -64 24 -81 0 -12 -16 -24
-19 -45 -12 -5 1 -16 1 -26 1 -9 -1 -20 5 -23 13 -4 10 -19 16 -40 16 -28 0
-36 -5 -44 -26z"/>
</g>
</svg>
